<?xml version="1.0" encoding="UTF-8"?><svg id="a" xmlns="http://www.w3.org/2000/svg" width="394.19" height="586.02" viewBox="0 0 394.19 586.02"><g><path d="M12.32,0c-1.1,0-2.55,.71-3.22,1.58L2.22,10.52c-.67,.87-.51,2.13,.36,2.8l6.68,5.14c.87,.67,2.13,.51,2.8-.36L21.8,5.45c.67-.87,.51-2.13-.36-2.8l-1.85-1.43c-.87-.67-2.48-1.22-3.58-1.22h-3.68Z" fill="#d1aba1"/><rect x="10.99" y=".02" width="383.19" height="520.17" rx="6" ry="6" fill="#d1aba1"/></g><rect y="9.05" width="383.19" height="520.17" rx="6" ry="6" fill="#eabfb4"/><rect x="293.82" y="9.05" width="36.97" height="520.17" fill="#2b2727"/><rect x="9.79" y="529.22" width="22.69" height="56.3" fill="#2b2727" stroke="#231f20" stroke-miterlimit="10"/><rect x="19.75" y="9.05" width="4.05" height="520.17" fill="#2b2727" opacity=".07"/><path d="M232.06,414.38c3.66,1.9,4.83,6.29,2.62,9.76s-2.22,9.15,0,12.62,1.04,7.86-2.62,9.76-6.5,6.82-6.31,10.93-3.03,7.33-7.15,7.15-9.03,2.66-10.93,6.31-6.29,4.83-9.76,2.62c-3.47-2.22-9.15-2.22-12.62,0s-7.86,1.04-9.76-2.62-6.82-6.5-10.93-6.31-7.33-3.03-7.15-7.15-2.66-9.03-6.31-10.93-4.83-6.29-2.62-9.76,2.22-9.15,0-12.62-1.04-7.86,2.62-9.76,6.5-6.82,6.31-10.93,3.03-7.33,7.15-7.15,9.03-2.66,10.93-6.31,6.29-4.83,9.76-2.62,9.15,2.22,12.62,0,7.86-1.04,9.76,2.62,6.82,6.5,10.93,6.31,7.33,3.03,7.15,7.15,2.66,9.03,6.31,10.93Z" fill="#d8ab28"/><polygon points="336.2 .02 299.23 .02 293.82 9.05 330.8 9.05 336.2 .02" fill="#2b2727"/></svg>