<?xml version="1.0" encoding="utf-8"?>
<!-- Generator: Adobe Illustrator 26.5.0, SVG Export Plug-In . SVG Version: 6.00 Build 0)  -->
<svg version="1.2" baseProfile="tiny" id="Layer_2" xmlns="http://www.w3.org/2000/svg" xmlns:xlink="http://www.w3.org/1999/xlink"
	 x="0px" y="0px" viewBox="0 0 946.45 196.42" overflow="visible" xml:space="preserve">
<g id="Layer_2_00000012460164508244229520000013863477463001293735_">
	<g>
		<g>
			<path d="M231.54,106.87c0,4.84,15.95,8.76,54.78,8.76s91.44-8.76,166.77-8.76c-97.62-1.85-127.95-8.76-166.77-8.76
				S231.54,102.03,231.54,106.87z"/>
		</g>
		<g>
			<path d="M450.9,93.34c0,0-1.88-1.1-4.99-3.07c-3.1-1.99-7.51-4.81-12.14-8.94c-4.59-4.12-9.49-9.83-11.97-17.37
				c-1.21-3.75-1.74-7.92-1.12-12.09c0.59-4.13,2.29-8.01,4.69-11.21c2.41-3.2,5.46-5.52,8.52-6.93c3.1-1.44,6.23-1.97,8.89-1.92
				c5.39,0.07,9.27,1.98,11.74,3.85c2.48,1.95,3.56,3.9,4.03,5.14c0.25,0.62,0.33,1.11,0.4,1.41c0.06,0.3,0.08,0.45,0.08,0.45
				s-0.13-0.08-0.39-0.25c-0.27-0.16-0.61-0.44-1.14-0.75c-1.03-0.64-2.65-1.5-5-2.13c-2.34-0.58-5.5-1.02-9.22-0.37
				c-1.86,0.32-3.73,0.95-5.6,2.02c-1.89,1.09-3.74,2.64-5.34,4.74c-1.57,2.11-2.84,4.66-3.43,7.42c-0.61,2.71-0.57,5.74,0.01,8.73
				c0.59,2.99,1.73,5.95,3.14,8.71c1.43,2.75,3.13,5.29,4.91,7.59c3.56,4.6,7.24,8.25,9.81,10.86
				C449.36,91.8,450.9,93.34,450.9,93.34z"/>
		</g>
		<g>
			<path d="M453.34,55.56c-0.25-0.77-0.66-1.43-1.31-1.94c-0.33-0.25-0.71-0.46-1.16-0.62c-0.44-0.14-0.95-0.22-1.53-0.24
				c-1.14-0.02-2.53,0.3-4.06,1.1c-1.52,0.8-3.14,2.14-4.55,4.11c-1.41,1.97-2.33,4.63-2.39,7.58c-0.11,2.93,0.79,6.19,2.56,8.79
				c1.77,2.61,4.21,4.63,6.97,6.1c2.77,1.46,5.85,2.46,9.24,2.79c-4.41-0.78-7.37-3.28-8.96-5.66c-0.81-1.21-1.29-2.41-1.55-3.51
				c-0.25-1.11-0.23-2.11-0.12-2.96c0.31-1.71,1.04-2.84,1.74-3.79c0.72-0.94,1.41-1.69,2.04-2.58c1.27-1.76,2.23-3.11,2.8-4.6
				c0.15-0.36,0.26-0.74,0.35-1.12c0.1-0.36,0.16-0.74,0.19-1.13C453.66,57.12,453.59,56.32,453.34,55.56z"/>
		</g>
		<g>
			<path d="M369.25,56.98c0,0-0.54-0.47-1.57-1.35c-1.04-0.88-2.56-2.18-4.66-3.73c-2.11-1.53-4.79-3.34-8.37-4.76
				c-1.79-0.69-3.78-1.28-6-1.59c-2.21-0.3-4.64-0.35-7.19,0.17c-2.53,0.52-5.21,1.66-7.48,3.55c-2.28,1.87-4.15,4.42-5.36,7.34
				c-1.21,2.93-1.73,6.24-1.48,9.65c0.16,1.7,0.48,3.44,1.11,5.13c0.58,1.73,1.4,3.21,2.31,4.74c1.89,2.96,4.33,5.6,7.09,7.79
				c2.75,2.22,5.8,4.05,9.01,5.6c3.22,1.55,6.58,2.79,10.05,3.8c3.48,1.01,7.1,1.76,10.82,2.21c7.44,0.88,14.94,0.42,21.88-1.52
				c6.9-1.95,13.22-5.26,18.19-9.77c4.96-4.42,8.72-10.35,9.44-16.72c0.16-1.59,0.16-3.2-0.12-4.76c-0.29-1.55-0.75-3.05-1.46-4.4
				c-1.39-2.71-3.44-4.73-5.55-6.16c-4.27-2.88-8.7-3.9-12.48-4.26c-3.79-0.33-6.99-0.07-9.58,0.2c-2.58,0.29-4.56,0.63-5.9,0.85
				c-1.34,0.23-2.04,0.36-2.04,0.36s0.71,0.01,2.07,0.02c1.36,0.01,3.36,0.02,5.91,0.13c2.55,0.13,5.66,0.36,9.09,1.16
				c3.38,0.79,7.16,2.29,10.25,4.99c1.53,1.33,2.8,2.99,3.51,4.86c0.71,1.87,0.85,3.96,0.39,6.12c-0.46,2.16-1.46,4.37-2.9,6.4
				c-0.71,1.02-1.52,2.01-2.42,2.92c-0.91,0.93-1.92,1.84-2.99,2.67c-4.27,3.39-9.67,5.87-15.54,7.3
				c-5.87,1.41-12.26,1.7-18.74,0.93c-6.45-0.78-12.81-2.52-18.4-4.92c-5.58-2.43-10.44-5.76-13.48-9.9
				c-1.52-2.13-2.5-4.22-2.88-6.54c-0.36-2.31-0.22-4.69,0.43-6.83c0.66-2.14,1.78-4.05,3.22-5.53c1.44-1.5,3.21-2.54,5.11-3.18
				c3.83-1.28,7.9-0.95,11.26-0.17c3.38,0.82,6.22,2.14,8.48,3.29c2.27,1.17,3.99,2.19,5.16,2.87
				C368.63,56.62,369.25,56.98,369.25,56.98z"/>
		</g>
		<g>
			<path d="M327.88,88.42c0,0-0.39-0.03-1.1-0.1c-0.36-0.04-0.8-0.07-1.32-0.13c-0.52-0.09-1.11-0.19-1.76-0.3
				c-2.61-0.51-6.34-1.56-10.27-3.86c-3.95-2.23-8.04-5.78-11.06-10.5c-1.5-2.36-2.67-5.03-3.39-7.82
				c-0.72-2.78-0.98-5.64-0.82-8.36c0.33-5.47,2.2-9.7,4.15-12.74c1.98-3.05,4.16-4.93,5.92-6.12c0.87-0.62,1.69-1.02,2.38-1.35
				c0.67-0.33,1.27-0.52,1.74-0.65c0.93-0.26,1.38-0.29,1.38-0.29s-0.12,0.46-0.49,1.32c-0.4,0.89-0.98,2.18-1.73,3.84
				c-0.77,1.7-1.74,3.84-2.63,6.55c-0.87,2.71-1.77,5.98-2.01,9.95c-0.23,3.97,0.31,8.19,2,12.2c1.69,3.99,4.3,7.69,7.19,10.48
				c2.84,2.85,5.86,4.82,8.11,6.06c0.57,0.3,1.09,0.57,1.53,0.81c0.46,0.21,0.86,0.39,1.18,0.54
				C327.52,88.26,327.88,88.42,327.88,88.42z"/>
		</g>
		<g>
			<path d="M220.02,49.95c0.1,1.62,2.03,2.94,6.08,3.8c2.02,0.43,4.57,0.76,7.67,1.03c3.09,0.23,6.7,0.5,10.93,0.82
				c2.08,0.17,4.25,0.34,6.54,0.52c2.27,0.19,4.65,0.43,7.08,0.81c4.86,0.75,10.21,1.99,15.6,4.56c5.33,2.57,10.79,6.57,14.4,12.93
				c1.86,3.14,3.5,6.85,6.49,9.69c1.49,1.39,3.29,2.5,5.28,3.16c1.98,0.66,4.21,0.82,6.27,0.08c-2.71,0.86-5.5,0.19-7.67-1.05
				c-2.21-1.24-3.89-3.01-5.05-4.99c-2.35-3.94-3.31-8.2-5.38-11.84c-1.96-3.66-4.44-6.61-6.91-9.12c-2.5-2.5-5.06-4.52-7.55-6.24
				c-5.01-3.43-9.76-5.66-14.38-7.27c-4.6-1.56-9.05-2.52-13.75-2.89c-4.7-0.39-8.67-0.26-11.97,0.06c-3.3,0.32-5.92,0.85-7.96,1.48
				C221.65,46.75,219.92,48.35,220.02,49.95z"/>
		</g>
		<g>
			<path d="M125.3,95c0,1.61,7.77,2.92,26.68,2.92S196.5,95,233.19,95c-47.54-0.62-62.31-2.92-81.22-2.92S125.3,93.39,125.3,95z"/>
		</g>
		<g>
			<path d="M147.53,125.41c0,1.61,7.24,2.92,24.84,2.92s41.47-2.92,75.64-2.92c-44.27-0.62-58.03-2.92-75.64-2.92
				S147.53,123.8,147.53,125.41z"/>
		</g>
		<g>
			<g>
				<path d="M9.99,112.06c0,0.54,0.44,0.99,0.99,0.99c0.54,0,0.99-0.44,0.99-0.99s-0.44-0.99-0.99-0.99
					C10.43,111.07,9.99,111.51,9.99,112.06z"/>
			</g>
			<g>
				<ellipse transform="matrix(0.9871 -0.1602 0.1602 0.9871 -17.7631 3.7632)" cx="14.46" cy="112.06" rx="1.31" ry="1.31"/>
			</g>
			<g>
				<path d="M17.35,112.06c0,0.97,0.78,1.75,1.75,1.75c0.97,0,1.75-0.78,1.75-1.75s-0.78-1.75-1.75-1.75
					C18.13,110.31,17.35,111.09,17.35,112.06z"/>
			</g>
			<g>
				<circle cx="25.29" cy="112.06" r="2.34"/>
			</g>
			<g>
				<circle cx="33.54" cy="112.06" r="3.12"/>
			</g>
			<g>
				<ellipse transform="matrix(0.9871 -0.1602 0.1602 0.9871 -17.3746 8.5814)" cx="44.54" cy="112.06" rx="4.15" ry="4.15"/>
			</g>
			<g>
				<circle cx="59.21" cy="112.06" r="5.54"/>
			</g>
			<g>
				<ellipse transform="matrix(0.9975 -0.0709 0.0709 0.9975 -7.7456 5.8655)" cx="78.77" cy="112.06" rx="7.38" ry="7.38"/>
			</g>
			<g>
				<path d="M147.53,112.06c0,0.54-0.44,0.99-0.99,0.99c-0.54,0-0.99-0.44-0.99-0.99s0.44-0.99,0.99-0.99
					C147.09,111.07,147.53,111.51,147.53,112.06z"/>
			</g>
			<g>
				<ellipse transform="matrix(0.1602 -0.9871 0.9871 0.1602 9.5393 235.3303)" cx="143.07" cy="112.06" rx="1.31" ry="1.31"/>
			</g>
			<g>
				<path d="M140.18,112.06c0,0.97-0.78,1.75-1.75,1.75c-0.97,0-1.75-0.78-1.75-1.75s0.78-1.75,1.75-1.75
					C139.4,110.31,140.18,111.09,140.18,112.06z"/>
			</g>
			<g>
				<circle cx="132.24" cy="112.06" r="2.34"/>
			</g>
			<g>
				<circle cx="123.99" cy="112.06" r="3.12"/>
			</g>
			<g>
				<ellipse transform="matrix(0.1602 -0.9871 0.9871 0.1602 -15.7226 205.6384)" cx="112.99" cy="112.06" rx="4.15" ry="4.15"/>
			</g>
			<g>
				<circle cx="98.32" cy="112.06" r="5.54"/>
			</g>
		</g>
		<g>
			<path d="M292.97,93.5c0,0-1.05-0.82-2.99-2.32c-1.96-1.48-4.78-3.67-8.47-6.23c-3.69-2.55-8.22-5.52-13.64-8.28
				c-5.4-2.77-11.83-5.17-18.95-6.18c-3.57-0.44-7.29-0.45-11.06-0.03c-3.76,0.49-7.53,1.54-11.16,3.11
				c-7.29,3.13-13.98,8.24-19.81,14.27c-5.85,6.03-10.83,13.07-15.95,19.98c-5.1,6.91-10.48,13.74-16.76,19.36
				c-6.28,5.66-13.05,9.55-19.44,12.37c-6.42,2.83-12.56,4.51-18.17,5.5c-0.7,0.13-1.39,0.26-2.07,0.39
				c-0.69,0.09-1.37,0.17-2.03,0.26c-1.34,0.15-2.63,0.35-3.9,0.45c-2.54,0.12-4.92,0.36-7.18,0.27c-1.12-0.01-2.21-0.02-3.26-0.04
				c-1.05-0.06-2.07-0.15-3.05-0.23c-0.98-0.08-1.93-0.14-2.84-0.24c-0.91-0.13-1.78-0.26-2.62-0.39c-0.84-0.13-1.65-0.25-2.42-0.37
				c-0.77-0.17-1.5-0.33-2.21-0.49c-1.4-0.34-2.7-0.57-3.85-0.93c-1.14-0.35-2.18-0.67-3.11-0.96c-0.46-0.15-0.9-0.28-1.31-0.41
				c-0.41-0.14-0.78-0.3-1.13-0.44c-2.79-1.12-3.99-1.65-3.99-1.65s1.3,0.28,4.18,1c0.36,0.09,0.74,0.2,1.16,0.28
				c0.42,0.08,0.86,0.16,1.33,0.24c0.94,0.18,1.99,0.37,3.15,0.59c1.15,0.23,2.45,0.33,3.85,0.53c0.7,0.09,1.43,0.18,2.19,0.28
				c0.77,0.05,1.56,0.1,2.39,0.16c0.83,0.06,1.68,0.12,2.57,0.18c0.89,0.04,1.81,0.02,2.77,0.04c0.95,0.01,1.94,0.02,2.96,0.02
				c1.02-0.05,2.07-0.1,3.16-0.16c2.17-0.04,4.46-0.39,6.89-0.62c1.21-0.15,2.45-0.4,3.73-0.6c0.64-0.11,1.28-0.21,1.94-0.32
				c0.65-0.15,1.3-0.3,1.97-0.45c5.33-1.15,11.15-2.91,17.19-5.71c6.02-2.79,12.36-6.51,18.24-11.81
				c5.92-5.29,11.17-11.81,16.34-18.62c5.19-6.79,10.41-13.89,16.68-20.06c6.22-6.14,13.42-11.35,21.29-14.44
				c3.92-1.55,7.99-2.54,12-2.92c4.02-0.31,7.95-0.16,11.67,0.45c7.42,1.33,13.91,4.08,19.28,7.12c5.4,3.03,9.82,6.21,13.4,8.94
				c3.59,2.73,6.31,5.06,8.19,6.63C291.96,92.63,292.97,93.5,292.97,93.5z"/>
		</g>
		<g>
			<path d="M397.43,169.21c0.8-0.07,1.55-0.47,2.22-1.16c0.34-0.35,0.63-0.77,0.94-1.26c0.32-0.49,0.62-1.06,0.89-1.69
				c0.62-1.27,1.16-2.84,1.89-4.7c0.71-1.87,1.53-4.05,2.72-6.53c1.19-2.47,2.46-5.22,4.29-8.13c1.86-2.87,4.22-5.95,7.59-8.7
				c0.82-0.72,1.74-1.35,2.67-2.03c0.96-0.61,1.95-1.28,3.02-1.84c2.12-1.16,4.46-2.21,7.02-2.97c5.09-1.55,11.06-2.2,17.3-1.04
				c-8.03-1.74-15.04-1.45-20.92-0.52c-5.9,0.95-10.74,2.6-14.82,4.54c-4.1,1.94-7.39,4.26-10.14,6.82
				c-2.74,2.58-4.93,5.45-6.56,8.85c-1.62,3.4-2.41,6.58-2.69,9.27c-0.31,2.69-0.04,4.92,0.38,6.6c0.25,0.85,0.53,1.56,0.83,2.15
				c0.31,0.59,0.69,1.06,1.05,1.42C395.84,169.01,396.63,169.28,397.43,169.21z"/>
		</g>
		<g>
			<path d="M357.81,172.34c1.33,0.93,3.64,0.14,6.99-2.77c1.68-1.45,3.62-3.43,5.86-5.93c2.25-2.5,4.78-5.54,7.76-9.04
				c2.98-3.49,6.07-7.37,9.7-11.45c1.83-2.01,3.76-4.11,5.93-6.16c2.14-2.08,4.5-4.09,7.12-6.04c2.61-1.98,5.51-3.8,8.68-5.48
				c3.16-1.7,6.63-3.17,10.38-4.32c7.45-2.3,16.25-3.34,25.32-1.28c-5.83-1.44-11.39-1.84-16.47-1.67
				c-5.1,0.18-9.74,0.92-13.94,1.89c-4.21,0.98-7.99,2.19-11.44,3.48c-3.42,1.34-6.52,2.73-9.35,4.18
				c-5.65,2.94-10.16,5.97-14.18,9.09c-3.99,3.14-7.44,6.41-10.65,10.18c-3.21,3.77-5.63,7.19-7.48,10.16
				c-1.86,2.97-3.14,5.5-3.98,7.59C356.4,168.97,356.5,171.41,357.81,172.34z"/>
		</g>
		<g>
			<path d="M280.92,178.01c-0.22,0.78,0.09,1.64,1.1,2.6c0.25,0.24,0.55,0.49,0.9,0.73c0.35,0.22,0.75,0.45,1.19,0.68
				c0.45,0.22,0.94,0.47,1.49,0.67c0.55,0.19,1.15,0.38,1.8,0.56c2.6,0.68,6.07,1.06,10.25,0.59c4.16-0.47,9.03-1.74,14.16-4.28
				c2.56-1.27,5.12-2.82,7.58-4.7c2.49-1.9,4.8-4.04,7.07-6.4c4.53-4.71,8.63-10.25,13.02-16.1c4.42-5.83,9.15-12.1,15.67-17.59
				c3.25-2.75,6.93-5.27,11.11-7.28c2.09-1.01,4.31-1.82,6.63-2.5c2.33-0.63,4.76-1.05,7.27-1.25c-6.52,0.3-12.34,2.16-17.35,4.45
				c-5.02,2.33-9.3,5.1-13.05,7.86c-3.76,2.77-6.99,5.57-9.91,8.15c-2.89,2.58-5.54,4.95-8.01,7.16c-4.9,4.36-9.15,7.77-13.19,10.61
				c-2.02,1.44-4,2.69-5.94,3.85c-1.95,1.18-3.96,2.23-6.03,3.25c-4.15,2.05-7.83,3.3-10.95,4.18c-3.12,0.88-5.7,1.34-7.8,1.75
				c-0.52,0.09-1.02,0.19-1.48,0.3c-0.47,0.1-0.89,0.16-1.3,0.26c-0.41,0.09-0.79,0.2-1.14,0.31c-0.35,0.1-0.66,0.19-0.96,0.3
				C281.86,176.61,281.14,177.23,280.92,178.01z"/>
		</g>
		<g>
			<path d="M284.84,138.87c-0.14,0.38-0.09,0.8,0.28,1.31c0.38,0.47,1.13,0.99,2.29,1.2c1.16,0.21,2.68,0.14,4.4-0.66
				c1.7-0.83,3.69-2.47,4.62-5.18c0.43-1.35,0.57-2.92,0.27-4.57c-0.15-0.83-0.38-1.66-0.78-2.52c-0.33-0.76-0.73-1.47-1.2-2.15
				c-0.94-1.34-2.11-2.55-3.52-3.56c-0.69-0.52-1.46-0.96-2.28-1.38c-0.77-0.38-1.58-0.72-2.4-1c-3.31-1.13-6.82-1.41-10.19-1.42
				c-3.35,0-7.07,0.18-11.2,1.04c-2.06,0.43-4.19,1.04-6.32,1.95c-1.07,0.44-2.13,0.98-3.19,1.57c-1.07,0.63-2.14,1.32-3.14,2.12
				c-2.01,1.58-3.83,3.54-5.31,5.9c-0.73,1.19-1.36,2.49-1.86,3.89c-0.48,1.41-0.8,2.93-0.91,4.5c-0.12,1.58,0.08,3.2,0.45,4.76
				c0.4,1.55,1.04,3.01,1.83,4.34c1.62,2.62,3.79,4.69,6.19,6.24c2.4,1.57,5.03,2.69,7.82,3.36c0.69,0.19,1.41,0.29,2.11,0.44
				c0.7,0.09,1.39,0.21,2.1,0.25c1.4,0.14,2.81,0.15,4.21,0.12c5.63-0.17,11.09-1.56,16.52-3.21c5.44-1.66,11.03-3.62,16.68-6.01
				c5.65-2.39,11.35-5.31,16.88-8.92c2.74-1.84,5.44-3.86,8.02-6.11c2.55-2.29,4.98-4.8,7.21-7.57
				c-5.87,7.15-13.02,11.89-19.83,15.37c-3.42,1.76-6.82,3.14-10.12,4.34c-3.29,1.21-6.52,2.15-9.62,2.97
				c-3.11,0.81-6.11,1.47-9,2.02c-2.89,0.56-5.65,0.99-8.27,1.23c-5.23,0.5-9.96,0.17-13.8-1.14c-3.75-1.26-6.78-3.63-8.39-6.08
				c-0.79-1.23-1.21-2.45-1.31-3.54c-0.1-1.09,0.13-2.09,0.55-3.1c0.88-2.02,2.74-3.95,4.93-5.3c1.08-0.66,2.31-1.23,3.65-1.73
				c1.33-0.49,2.77-0.88,4.29-1.2c3.04-0.64,6.13-0.89,9.04-1.03c2.88-0.15,5.18-0.07,6.91,0.3c0.43,0.09,0.83,0.2,1.21,0.31
				c0.32,0.11,0.64,0.21,0.94,0.36c0.61,0.27,1.1,0.62,1.5,0.94c0.19,0.16,0.36,0.32,0.49,0.46c0.09,0.03,0.19,0.13,0.27,0.21
				c0.17,0.18,0.32,0.42,0.4,0.69c0.16,0.54,0.04,1.16-0.23,1.71c-0.3,0.59-0.77,1.09-1.17,1.49
				C286.06,137.69,285.14,138.08,284.84,138.87z"/>
		</g>
	</g>
	<g>
		<g>
			<path d="M714.52,106.87c0,4.84-15.95,8.76-54.78,8.76s-91.44-8.76-166.77-8.76c97.62-1.85,127.95-8.76,166.77-8.76
				S714.52,102.03,714.52,106.87z"/>
		</g>
		<g>
			<path d="M495.16,93.34c0,0,1.88-1.1,4.99-3.07c3.1-1.99,7.51-4.81,12.14-8.94c4.59-4.12,9.49-9.83,11.97-17.37
				c1.21-3.75,1.74-7.92,1.12-12.09c-0.59-4.13-2.29-8.01-4.69-11.21c-2.41-3.2-5.46-5.52-8.52-6.93c-3.1-1.44-6.23-1.97-8.89-1.92
				c-5.39,0.07-9.27,1.98-11.74,3.85c-2.48,1.95-3.56,3.9-4.03,5.14c-0.25,0.62-0.33,1.11-0.4,1.41c-0.06,0.3-0.08,0.45-0.08,0.45
				s0.13-0.08,0.39-0.25c0.27-0.16,0.61-0.44,1.14-0.75c1.03-0.64,2.65-1.5,5-2.13c2.34-0.58,5.5-1.02,9.22-0.37
				c1.86,0.32,3.73,0.95,5.6,2.02c1.89,1.09,3.74,2.64,5.34,4.74c1.57,2.11,2.84,4.66,3.43,7.42c0.61,2.71,0.57,5.74-0.01,8.73
				c-0.59,2.99-1.73,5.95-3.14,8.71c-1.43,2.75-3.13,5.29-4.91,7.59c-3.56,4.6-7.24,8.25-9.81,10.86
				C496.7,91.8,495.16,93.34,495.16,93.34z"/>
		</g>
		<g>
			<path d="M492.72,55.56c0.25-0.77,0.66-1.43,1.31-1.94c0.33-0.25,0.71-0.46,1.16-0.62c0.44-0.14,0.95-0.22,1.53-0.24
				c1.14-0.02,2.53,0.3,4.06,1.1c1.52,0.8,3.14,2.14,4.55,4.11c1.41,1.97,2.33,4.63,2.39,7.58c0.11,2.93-0.79,6.19-2.56,8.79
				c-1.77,2.61-4.21,4.63-6.97,6.1c-2.77,1.46-5.85,2.46-9.24,2.79c4.41-0.78,7.37-3.28,8.96-5.66c0.81-1.21,1.29-2.41,1.55-3.51
				c0.25-1.11,0.23-2.11,0.12-2.96c-0.31-1.71-1.04-2.84-1.74-3.79c-0.72-0.94-1.41-1.69-2.04-2.58c-1.27-1.76-2.23-3.11-2.8-4.6
				c-0.15-0.36-0.26-0.74-0.35-1.12c-0.1-0.36-0.16-0.74-0.19-1.13C492.4,57.12,492.47,56.32,492.72,55.56z"/>
		</g>
		<g>
			<path d="M576.81,56.98c0,0,0.54-0.47,1.57-1.35c1.04-0.88,2.56-2.18,4.66-3.73c2.11-1.53,4.79-3.34,8.37-4.76
				c1.79-0.69,3.78-1.28,6-1.59c2.21-0.3,4.64-0.35,7.19,0.17c2.53,0.52,5.21,1.66,7.48,3.55c2.28,1.87,4.15,4.42,5.36,7.34
				c1.21,2.93,1.73,6.24,1.48,9.65c-0.16,1.7-0.48,3.44-1.11,5.13c-0.58,1.73-1.4,3.21-2.31,4.74c-1.89,2.96-4.33,5.6-7.09,7.79
				c-2.75,2.22-5.8,4.05-9.01,5.6c-3.22,1.55-6.58,2.79-10.05,3.8c-3.48,1.01-7.1,1.76-10.82,2.21c-7.44,0.88-14.94,0.42-21.88-1.52
				c-6.9-1.95-13.22-5.26-18.19-9.77c-4.96-4.42-8.72-10.35-9.44-16.72c-0.16-1.59-0.16-3.2,0.12-4.76c0.29-1.55,0.75-3.05,1.46-4.4
				c1.39-2.71,3.44-4.73,5.55-6.16c4.27-2.88,8.7-3.9,12.48-4.26c3.79-0.33,6.99-0.07,9.58,0.2c2.58,0.29,4.56,0.63,5.9,0.85
				c1.34,0.23,2.04,0.36,2.04,0.36s-0.71,0.01-2.07,0.02c-1.36,0.01-3.36,0.02-5.91,0.13c-2.55,0.13-5.66,0.36-9.09,1.16
				c-3.38,0.79-7.16,2.29-10.25,4.99c-1.53,1.33-2.8,2.99-3.51,4.86c-0.71,1.87-0.85,3.96-0.39,6.12c0.46,2.16,1.46,4.37,2.9,6.4
				c0.71,1.02,1.52,2.01,2.42,2.92c0.91,0.93,1.92,1.84,2.99,2.67c4.27,3.39,9.67,5.87,15.54,7.3c5.87,1.41,12.26,1.7,18.74,0.93
				c6.45-0.78,12.81-2.52,18.4-4.92c5.58-2.43,10.44-5.76,13.48-9.9c1.52-2.13,2.5-4.22,2.88-6.54c0.36-2.31,0.22-4.69-0.43-6.83
				c-0.66-2.14-1.78-4.05-3.22-5.53c-1.44-1.5-3.21-2.54-5.11-3.18c-3.83-1.28-7.9-0.95-11.26-0.17c-3.38,0.82-6.22,2.14-8.48,3.29
				c-2.27,1.17-3.99,2.19-5.16,2.87C577.43,56.62,576.81,56.98,576.81,56.98z"/>
		</g>
		<g>
			<path d="M618.19,88.42c0,0,0.39-0.03,1.1-0.1c0.36-0.04,0.8-0.07,1.32-0.13c0.52-0.09,1.11-0.19,1.76-0.3
				c2.61-0.51,6.34-1.56,10.27-3.86c3.95-2.23,8.04-5.78,11.06-10.5c1.5-2.36,2.67-5.03,3.39-7.82c0.72-2.78,0.98-5.64,0.82-8.36
				c-0.33-5.47-2.2-9.7-4.15-12.74c-1.98-3.05-4.16-4.93-5.92-6.12c-0.87-0.62-1.69-1.02-2.38-1.35c-0.67-0.33-1.27-0.52-1.74-0.65
				c-0.93-0.26-1.38-0.29-1.38-0.29s0.12,0.46,0.49,1.32c0.4,0.89,0.98,2.18,1.73,3.84c0.77,1.7,1.74,3.84,2.63,6.55
				c0.87,2.71,1.77,5.98,2.01,9.95c0.23,3.97-0.31,8.19-2,12.2c-1.69,3.99-4.3,7.69-7.19,10.48c-2.84,2.85-5.86,4.82-8.11,6.06
				c-0.57,0.3-1.09,0.57-1.53,0.81c-0.46,0.21-0.86,0.39-1.18,0.54C618.54,88.26,618.19,88.42,618.19,88.42z"/>
		</g>
		<g>
			<path d="M726.04,49.95c-0.1,1.62-2.03,2.94-6.08,3.8c-2.02,0.43-4.57,0.76-7.67,1.03c-3.09,0.23-6.7,0.5-10.93,0.82
				c-2.08,0.17-4.25,0.34-6.54,0.52c-2.27,0.19-4.65,0.43-7.08,0.81c-4.86,0.75-10.21,1.99-15.6,4.56
				c-5.33,2.57-10.79,6.57-14.4,12.93c-1.86,3.14-3.5,6.85-6.49,9.69c-1.49,1.39-3.29,2.5-5.28,3.16c-1.98,0.66-4.21,0.82-6.27,0.08
				c2.71,0.86,5.5,0.19,7.67-1.05c2.21-1.24,3.89-3.01,5.05-4.99c2.35-3.94,3.31-8.2,5.38-11.84c1.96-3.66,4.44-6.61,6.91-9.12
				c2.5-2.5,5.06-4.52,7.55-6.24c5.01-3.43,9.76-5.66,14.38-7.27c4.6-1.56,9.05-2.52,13.75-2.89c4.7-0.39,8.67-0.26,11.97,0.06
				c3.3,0.32,5.92,0.85,7.96,1.48C724.41,46.75,726.14,48.35,726.04,49.95z"/>
		</g>
		<g>
			<path d="M820.76,95c0,1.61-7.77,2.92-26.68,2.92S749.56,95,712.87,95c47.54-0.62,62.31-2.92,81.22-2.92S820.76,93.39,820.76,95z"
				/>
		</g>
		<g>
			<path d="M798.53,125.41c0,1.61-7.24,2.92-24.84,2.92s-41.47-2.92-75.64-2.92c44.27-0.62,58.03-2.92,75.64-2.92
				S798.53,123.8,798.53,125.41z"/>
		</g>
		<g>
			<g>
				<path d="M936.07,112.06c0,0.54-0.44,0.99-0.99,0.99c-0.54,0-0.99-0.44-0.99-0.99s0.44-0.99,0.99-0.99
					C935.63,111.07,936.07,111.51,936.07,112.06z"/>
			</g>
			<g>
				<ellipse transform="matrix(0.1602 -0.9871 0.9871 0.1602 671.7635 1013.6812)" cx="931.6" cy="112.06" rx="1.31" ry="1.31"/>
			</g>
			<g>
				<path d="M928.71,112.06c0,0.97-0.78,1.75-1.75,1.75c-0.97,0-1.75-0.78-1.75-1.75s0.78-1.75,1.75-1.75
					C927.93,110.31,928.71,111.09,928.71,112.06z"/>
			</g>
			<g>
				<circle cx="920.77" cy="112.06" r="2.34"/>
			</g>
			<g>
				<circle cx="912.52" cy="112.06" r="3.12"/>
			</g>
			<g>
				<ellipse transform="matrix(0.1602 -0.9871 0.9871 0.1602 646.5023 983.9894)" cx="901.52" cy="112.06" rx="4.15" ry="4.15"/>
			</g>
			<g>
				<circle cx="886.85" cy="112.06" r="5.54"/>
			</g>
			<g>
				<ellipse transform="matrix(0.0709 -0.9975 0.9975 0.0709 694.0375 969.2295)" cx="867.3" cy="112.06" rx="7.38" ry="7.38"/>
			</g>
			<g>
				<path d="M798.53,112.06c0,0.54,0.44,0.99,0.99,0.99c0.54,0,0.99-0.44,0.99-0.99s-0.44-0.99-0.99-0.99
					C798.97,111.07,798.53,111.51,798.53,112.06z"/>
			</g>
			<g>
				<ellipse transform="matrix(0.9871 -0.1602 0.1602 0.9871 -7.5812 130.0718)" cx="802.99" cy="112.06" rx="1.31" ry="1.31"/>
			</g>
			<g>
				<path d="M805.88,112.06c0,0.97,0.78,1.75,1.75,1.75c0.97,0,1.75-0.78,1.75-1.75s-0.78-1.75-1.75-1.75
					C806.67,110.31,805.88,111.09,805.88,112.06z"/>
			</g>
			<g>
				<circle cx="813.82" cy="112.06" r="2.34"/>
			</g>
			<g>
				<circle cx="822.07" cy="112.06" r="3.12"/>
			</g>
			<g>
				<ellipse transform="matrix(0.9871 -0.1602 0.1602 0.9871 -7.1928 134.8893)" cx="833.07" cy="112.06" rx="4.15" ry="4.15"/>
			</g>
			<g>
				<circle cx="847.74" cy="112.06" r="5.54"/>
			</g>
		</g>
		<g>
			<path d="M653.09,93.5c0,0,1.05-0.82,2.99-2.32c1.96-1.48,4.78-3.67,8.47-6.23c3.69-2.55,8.22-5.52,13.64-8.28
				c5.4-2.77,11.83-5.17,18.95-6.18c3.57-0.44,7.29-0.45,11.06-0.03c3.76,0.49,7.53,1.54,11.16,3.11
				c7.29,3.13,13.98,8.24,19.81,14.27c5.85,6.03,10.83,13.07,15.95,19.98c5.1,6.91,10.48,13.74,16.76,19.36
				c6.28,5.66,13.05,9.55,19.44,12.37c6.42,2.83,12.56,4.51,18.17,5.5c0.7,0.13,1.39,0.26,2.07,0.39c0.69,0.09,1.37,0.17,2.03,0.26
				c1.34,0.15,2.63,0.35,3.9,0.45c2.54,0.12,4.92,0.36,7.18,0.27c1.12-0.01,2.21-0.02,3.26-0.04c1.05-0.06,2.07-0.15,3.05-0.23
				c0.98-0.08,1.93-0.14,2.84-0.24c0.91-0.13,1.78-0.26,2.62-0.39c0.84-0.13,1.65-0.25,2.42-0.37c0.77-0.17,1.5-0.33,2.21-0.49
				c1.4-0.34,2.7-0.57,3.85-0.93c1.14-0.35,2.18-0.67,3.11-0.96c0.46-0.15,0.9-0.28,1.31-0.41c0.41-0.14,0.78-0.3,1.13-0.44
				c2.79-1.12,3.99-1.65,3.99-1.65s-1.3,0.28-4.18,1c-0.36,0.09-0.74,0.2-1.16,0.28c-0.42,0.08-0.86,0.16-1.33,0.24
				c-0.94,0.18-1.99,0.37-3.15,0.59c-1.15,0.23-2.45,0.33-3.85,0.53c-0.7,0.09-1.43,0.18-2.19,0.28c-0.77,0.05-1.56,0.1-2.39,0.16
				c-0.83,0.06-1.68,0.12-2.57,0.18c-0.89,0.04-1.81,0.02-2.77,0.04c-0.95,0.01-1.94,0.02-2.96,0.02c-1.02-0.05-2.07-0.1-3.16-0.16
				c-2.17-0.04-4.46-0.39-6.89-0.62c-1.21-0.15-2.45-0.4-3.73-0.6c-0.64-0.11-1.28-0.21-1.94-0.32c-0.65-0.15-1.3-0.3-1.97-0.45
				c-5.33-1.15-11.15-2.91-17.19-5.71c-6.02-2.79-12.36-6.51-18.24-11.81c-5.92-5.29-11.17-11.81-16.34-18.62
				c-5.19-6.79-10.41-13.89-16.68-20.06c-6.22-6.14-13.42-11.35-21.29-14.44c-3.92-1.55-7.99-2.54-12-2.92
				c-4.02-0.31-7.95-0.16-11.67,0.45c-7.42,1.33-13.91,4.08-19.28,7.12c-5.4,3.03-9.82,6.21-13.4,8.94
				c-3.59,2.73-6.31,5.06-8.19,6.63C654.1,92.63,653.09,93.5,653.09,93.5z"/>
		</g>
		<g>
			<path d="M548.63,169.21c-0.8-0.07-1.55-0.47-2.22-1.16c-0.34-0.35-0.63-0.77-0.94-1.26c-0.32-0.49-0.62-1.06-0.89-1.69
				c-0.62-1.27-1.16-2.84-1.89-4.7c-0.71-1.87-1.53-4.05-2.72-6.53c-1.19-2.47-2.46-5.22-4.29-8.13c-1.86-2.87-4.22-5.95-7.59-8.7
				c-0.82-0.72-1.74-1.35-2.67-2.03c-0.96-0.61-1.95-1.28-3.02-1.84c-2.12-1.16-4.46-2.21-7.02-2.97c-5.09-1.55-11.06-2.2-17.3-1.04
				c8.03-1.74,15.04-1.45,20.92-0.52c5.9,0.95,10.74,2.6,14.82,4.54c4.1,1.94,7.39,4.26,10.14,6.82c2.74,2.58,4.93,5.45,6.56,8.85
				c1.62,3.4,2.41,6.58,2.69,9.27c0.31,2.69,0.04,4.92-0.38,6.6c-0.25,0.85-0.53,1.56-0.83,2.15c-0.31,0.59-0.69,1.06-1.05,1.42
				C550.22,169.01,549.44,169.28,548.63,169.21z"/>
		</g>
		<g>
			<path d="M588.25,172.34c-1.33,0.93-3.64,0.14-6.99-2.77c-1.68-1.45-3.62-3.43-5.86-5.93c-2.25-2.5-4.78-5.54-7.76-9.04
				c-2.98-3.49-6.07-7.37-9.7-11.45c-1.83-2.01-3.76-4.11-5.93-6.16c-2.14-2.08-4.5-4.09-7.12-6.04c-2.61-1.98-5.51-3.8-8.68-5.48
				c-3.16-1.7-6.63-3.17-10.38-4.32c-7.45-2.3-16.25-3.34-25.32-1.28c5.83-1.44,11.39-1.84,16.47-1.67
				c5.1,0.18,9.74,0.92,13.94,1.89c4.21,0.98,7.99,2.19,11.44,3.48c3.42,1.34,6.52,2.73,9.35,4.18c5.65,2.94,10.16,5.97,14.18,9.09
				c3.99,3.14,7.44,6.41,10.65,10.18c3.21,3.77,5.63,7.19,7.48,10.16c1.86,2.97,3.14,5.5,3.98,7.59
				C589.66,168.97,589.56,171.41,588.25,172.34z"/>
		</g>
		<g>
			<path d="M665.14,178.01c0.22,0.78-0.09,1.64-1.1,2.6c-0.25,0.24-0.55,0.49-0.9,0.73c-0.35,0.22-0.75,0.45-1.19,0.68
				c-0.45,0.22-0.94,0.47-1.49,0.67c-0.55,0.19-1.15,0.38-1.8,0.56c-2.6,0.68-6.07,1.06-10.25,0.59c-4.16-0.47-9.03-1.74-14.16-4.28
				c-2.56-1.27-5.12-2.82-7.58-4.7c-2.49-1.9-4.8-4.04-7.07-6.4c-4.53-4.71-8.63-10.25-13.02-16.1c-4.42-5.83-9.15-12.1-15.67-17.59
				c-3.25-2.75-6.93-5.27-11.11-7.28c-2.09-1.01-4.31-1.82-6.63-2.5c-2.33-0.63-4.76-1.05-7.27-1.25c6.52,0.3,12.34,2.16,17.35,4.45
				c5.02,2.33,9.3,5.1,13.05,7.86c3.76,2.77,6.99,5.57,9.91,8.15c2.89,2.58,5.54,4.95,8.01,7.16c4.9,4.36,9.15,7.77,13.19,10.61
				c2.02,1.44,4,2.69,5.94,3.85c1.95,1.18,3.96,2.23,6.03,3.25c4.15,2.05,7.83,3.3,10.95,4.18c3.12,0.88,5.7,1.34,7.8,1.75
				c0.52,0.09,1.02,0.19,1.48,0.3c0.47,0.1,0.89,0.16,1.3,0.26c0.41,0.09,0.79,0.2,1.14,0.31c0.35,0.1,0.66,0.19,0.96,0.3
				C664.2,176.61,664.92,177.23,665.14,178.01z"/>
		</g>
		<g>
			<path d="M661.22,138.87c0.14,0.38,0.09,0.8-0.28,1.31c-0.38,0.47-1.13,0.99-2.29,1.2c-1.16,0.21-2.68,0.14-4.4-0.66
				c-1.7-0.83-3.69-2.47-4.62-5.18c-0.43-1.35-0.57-2.92-0.27-4.57c0.15-0.83,0.38-1.66,0.78-2.52c0.33-0.76,0.73-1.47,1.2-2.15
				c0.94-1.34,2.11-2.55,3.52-3.56c0.69-0.52,1.46-0.96,2.28-1.38c0.77-0.38,1.58-0.72,2.4-1c3.31-1.13,6.82-1.41,10.19-1.42
				c3.35,0,7.07,0.18,11.2,1.04c2.06,0.43,4.19,1.04,6.32,1.95c1.07,0.44,2.13,0.98,3.19,1.57c1.07,0.63,2.14,1.32,3.14,2.12
				c2.01,1.58,3.83,3.54,5.31,5.9c0.73,1.19,1.36,2.49,1.86,3.89c0.48,1.41,0.8,2.93,0.91,4.5c0.12,1.58-0.08,3.2-0.45,4.76
				c-0.4,1.55-1.04,3.01-1.83,4.34c-1.62,2.62-3.79,4.69-6.19,6.24c-2.4,1.57-5.03,2.69-7.82,3.36c-0.69,0.19-1.41,0.29-2.11,0.44
				c-0.7,0.09-1.39,0.21-2.1,0.25c-1.4,0.14-2.81,0.15-4.21,0.12c-5.63-0.17-11.09-1.56-16.52-3.21
				c-5.44-1.66-11.03-3.62-16.68-6.01c-5.65-2.39-11.35-5.31-16.88-8.92c-2.74-1.84-5.44-3.86-8.02-6.11
				c-2.55-2.29-4.98-4.8-7.21-7.57c5.87,7.15,13.02,11.89,19.83,15.37c3.42,1.76,6.82,3.14,10.12,4.34
				c3.29,1.21,6.52,2.15,9.62,2.97c3.11,0.81,6.11,1.47,9,2.02c2.89,0.56,5.65,0.99,8.27,1.23c5.23,0.5,9.96,0.17,13.8-1.14
				c3.75-1.26,6.78-3.63,8.39-6.08c0.79-1.23,1.21-2.45,1.31-3.54c0.1-1.09-0.13-2.09-0.55-3.1c-0.88-2.02-2.74-3.95-4.93-5.3
				c-1.08-0.66-2.31-1.23-3.65-1.73c-1.33-0.49-2.77-0.88-4.29-1.2c-3.04-0.64-6.13-0.89-9.04-1.03c-2.88-0.15-5.18-0.07-6.91,0.3
				c-0.43,0.09-0.83,0.2-1.21,0.31c-0.32,0.11-0.64,0.21-0.94,0.36c-0.61,0.27-1.1,0.62-1.5,0.94c-0.19,0.16-0.36,0.32-0.49,0.46
				c-0.09,0.03-0.19,0.13-0.27,0.21c-0.17,0.18-0.32,0.42-0.4,0.69c-0.16,0.54-0.04,1.16,0.23,1.71c0.3,0.59,0.77,1.09,1.17,1.49
				C660,137.69,660.92,138.08,661.22,138.87z"/>
		</g>
	</g>
</g>
</svg>
